<svg width="35" height="35" viewBox="0 0 35 35" fill="none" xmlns="http://www.w3.org/2000/svg">
<path d="M12.7582 29.7612C12.7582 30.5405 13.3958 31.1781 14.1751 31.1781H19.8428C20.6221 31.1781 21.2597 30.5405 21.2597 29.7612V28.3443H12.7582V29.7612ZM17.0089 2.83981C11.5396 2.83981 7.09052 7.28893 7.09052 12.7582C7.09052 16.1305 8.77664 19.0918 11.3413 20.8913V24.0935C11.3413 24.8728 11.9789 25.5105 12.7582 25.5105H21.2597C22.039 25.5105 22.6766 24.8728 22.6766 24.0935V20.8913C25.2412 19.0918 26.9273 16.1305 26.9273 12.7582C26.9273 7.28893 22.4782 2.83981 17.0089 2.83981ZM21.0471 18.5676L19.8428 19.4177V22.6766H14.1751V19.4177L12.9707 18.5676C12.032 17.9168 11.2647 17.0486 10.7342 16.037C10.2037 15.0254 9.92587 13.9005 9.92435 12.7582C9.92435 8.84753 13.0982 5.67364 17.0089 5.67364C20.9196 5.67364 24.0935 8.84753 24.0935 12.7582C24.0935 15.0678 22.96 17.2357 21.0471 18.5676Z" fill="#F5F5F5"/>
</svg>
